<mxfile host="Electron" agent="Mozilla/5.0 (Windows NT 10.0; Win64; x64) AppleWebKit/537.36 (KHTML, like Gecko) draw.io/24.7.17 Chrome/128.0.6613.36 Electron/32.0.1 Safari/537.36" version="24.7.17">
  <diagram name="Page-1" id="g7N4UHKcB5dymfj1z4Jn">
    <mxGraphModel dx="1036" dy="606" grid="1" gridSize="10" guides="1" tooltips="1" connect="1" arrows="1" fold="1" page="1" pageScale="1" pageWidth="850" pageHeight="1100" math="0" shadow="0">
      <root>
        <mxCell id="0" />
        <mxCell id="1" parent="0" />
        <mxCell id="htHEX2wMej1VXqCmajkV-23" value="User" style="shape=umlLifeline;perimeter=lifelinePerimeter;whiteSpace=wrap;container=1;dropTarget=0;collapsible=0;recursiveResize=0;outlineConnect=0;portConstraint=eastwest;newEdgeStyle={&quot;edgeStyle&quot;:&quot;elbowEdgeStyle&quot;,&quot;elbow&quot;:&quot;vertical&quot;,&quot;curved&quot;:0,&quot;rounded&quot;:0};participant=umlActor;verticalAlign=bottom;labelPosition=center;verticalLabelPosition=top;align=center;size=65;labelBackgroundColor=none;fillColor=#09555B;strokeColor=#BAC8D3;fontColor=#EEEEEE;strokeWidth=2;" parent="1" vertex="1">
          <mxGeometry x="20" y="110" width="35" height="720" as="geometry" />
        </mxCell>
        <mxCell id="htHEX2wMej1VXqCmajkV-24" value="Frontend (UI)" style="shape=umlLifeline;perimeter=lifelinePerimeter;whiteSpace=wrap;container=1;dropTarget=0;collapsible=0;recursiveResize=0;outlineConnect=0;portConstraint=eastwest;newEdgeStyle={&quot;edgeStyle&quot;:&quot;elbowEdgeStyle&quot;,&quot;elbow&quot;:&quot;vertical&quot;,&quot;curved&quot;:0,&quot;rounded&quot;:0};size=65;labelBackgroundColor=none;fillColor=#09555B;strokeColor=#BAC8D3;fontColor=#EEEEEE;strokeWidth=2;" parent="1" vertex="1">
          <mxGeometry x="266" y="110" width="150" height="720" as="geometry" />
        </mxCell>
        <mxCell id="htHEX2wMej1VXqCmajkV-25" value="Backend (API)" style="shape=umlLifeline;perimeter=lifelinePerimeter;whiteSpace=wrap;container=1;dropTarget=0;collapsible=0;recursiveResize=0;outlineConnect=0;portConstraint=eastwest;newEdgeStyle={&quot;edgeStyle&quot;:&quot;elbowEdgeStyle&quot;,&quot;elbow&quot;:&quot;vertical&quot;,&quot;curved&quot;:0,&quot;rounded&quot;:0};size=65;labelBackgroundColor=none;fillColor=#09555B;strokeColor=#BAC8D3;fontColor=#EEEEEE;strokeWidth=2;" parent="1" vertex="1">
          <mxGeometry x="508" y="110" width="150" height="720" as="geometry" />
        </mxCell>
        <mxCell id="htHEX2wMej1VXqCmajkV-26" value="Database" style="shape=umlLifeline;perimeter=lifelinePerimeter;whiteSpace=wrap;container=1;dropTarget=0;collapsible=0;recursiveResize=0;outlineConnect=0;portConstraint=eastwest;newEdgeStyle={&quot;edgeStyle&quot;:&quot;elbowEdgeStyle&quot;,&quot;elbow&quot;:&quot;vertical&quot;,&quot;curved&quot;:0,&quot;rounded&quot;:0};size=65;labelBackgroundColor=none;fillColor=#09555B;strokeColor=#BAC8D3;fontColor=#EEEEEE;strokeWidth=2;" parent="1" vertex="1">
          <mxGeometry x="820" y="110" width="150" height="720" as="geometry" />
        </mxCell>
        <mxCell id="htHEX2wMej1VXqCmajkV-27" value="alt" style="shape=umlFrame;dashed=1;pointerEvents=0;dropTarget=0;strokeColor=#BAC8D3;height=20;width=30;labelBackgroundColor=none;fillColor=#09555B;fontColor=#EEEEEE;" parent="1" vertex="1">
          <mxGeometry x="40" y="600" width="848" height="209" as="geometry" />
        </mxCell>
        <mxCell id="htHEX2wMej1VXqCmajkV-28" value="[Employee Exists]" style="text;strokeColor=none;fillColor=none;align=center;verticalAlign=middle;whiteSpace=wrap;labelBackgroundColor=none;fontColor=#EEEEEE;" parent="htHEX2wMej1VXqCmajkV-27" vertex="1">
          <mxGeometry x="31.64179104477612" width="816.358208955224" height="20" as="geometry" />
        </mxCell>
        <mxCell id="htHEX2wMej1VXqCmajkV-29" value="Fill Employee Form" style="verticalAlign=bottom;edgeStyle=elbowEdgeStyle;elbow=vertical;curved=0;rounded=0;endArrow=block;labelBackgroundColor=none;strokeColor=#0B4D6A;fontColor=default;strokeWidth=4;" parent="1" source="htHEX2wMej1VXqCmajkV-23" target="htHEX2wMej1VXqCmajkV-24" edge="1">
          <mxGeometry relative="1" as="geometry">
            <Array as="points">
              <mxPoint x="227" y="219" />
            </Array>
          </mxGeometry>
        </mxCell>
        <mxCell id="htHEX2wMej1VXqCmajkV-30" value="1" style="ellipse;aspect=fixed;fillColor=#09555B;align=center;fontColor=#EEEEEE;labelBackgroundColor=none;strokeColor=#BAC8D3;" parent="htHEX2wMej1VXqCmajkV-29" vertex="1">
          <mxGeometry width="14" height="14" relative="1" as="geometry">
            <mxPoint x="-130.5" y="-7" as="offset" />
          </mxGeometry>
        </mxCell>
        <mxCell id="htHEX2wMej1VXqCmajkV-31" value="Send Employee Data" style="verticalAlign=bottom;edgeStyle=elbowEdgeStyle;elbow=vertical;curved=0;rounded=0;endArrow=block;labelBackgroundColor=none;strokeColor=#0B4D6A;fontColor=default;strokeWidth=4;" parent="1" source="htHEX2wMej1VXqCmajkV-24" target="htHEX2wMej1VXqCmajkV-25" edge="1">
          <mxGeometry relative="1" as="geometry">
            <Array as="points">
              <mxPoint x="471" y="273" />
            </Array>
          </mxGeometry>
        </mxCell>
        <mxCell id="htHEX2wMej1VXqCmajkV-32" value="2" style="ellipse;aspect=fixed;fillColor=#09555B;align=center;fontColor=#EEEEEE;labelBackgroundColor=none;strokeColor=#BAC8D3;" parent="htHEX2wMej1VXqCmajkV-31" vertex="1">
          <mxGeometry width="14" height="14" relative="1" as="geometry">
            <mxPoint x="-128.5" y="-7" as="offset" />
          </mxGeometry>
        </mxCell>
        <mxCell id="htHEX2wMej1VXqCmajkV-33" value="Check if Employee Exists (Email)" style="verticalAlign=bottom;edgeStyle=elbowEdgeStyle;elbow=vertical;curved=0;rounded=0;endArrow=block;labelBackgroundColor=none;strokeColor=#0B4D6A;fontColor=default;strokeWidth=4;" parent="1" source="htHEX2wMej1VXqCmajkV-25" target="htHEX2wMej1VXqCmajkV-26" edge="1">
          <mxGeometry relative="1" as="geometry">
            <Array as="points">
              <mxPoint x="739" y="327" />
            </Array>
          </mxGeometry>
        </mxCell>
        <mxCell id="htHEX2wMej1VXqCmajkV-34" value="3" style="ellipse;aspect=fixed;fillColor=#09555B;align=center;fontColor=#EEEEEE;labelBackgroundColor=none;strokeColor=#BAC8D3;" parent="htHEX2wMej1VXqCmajkV-33" vertex="1">
          <mxGeometry width="14" height="14" relative="1" as="geometry">
            <mxPoint x="-154.5" y="-7" as="offset" />
          </mxGeometry>
        </mxCell>
        <mxCell id="htHEX2wMej1VXqCmajkV-35" value="Employee Does Not Exist" style="verticalAlign=bottom;edgeStyle=elbowEdgeStyle;elbow=vertical;curved=0;rounded=0;dashed=1;dashPattern=2 3;endArrow=block;labelBackgroundColor=none;strokeColor=#0B4D6A;fontColor=default;strokeWidth=3;" parent="1" source="htHEX2wMej1VXqCmajkV-26" target="htHEX2wMej1VXqCmajkV-25" edge="1">
          <mxGeometry relative="1" as="geometry">
            <Array as="points">
              <mxPoint x="742" y="381" />
            </Array>
          </mxGeometry>
        </mxCell>
        <mxCell id="htHEX2wMej1VXqCmajkV-36" value="4" style="ellipse;aspect=fixed;fillColor=#09555B;align=center;fontColor=#EEEEEE;labelBackgroundColor=none;strokeColor=#BAC8D3;" parent="htHEX2wMej1VXqCmajkV-35" vertex="1">
          <mxGeometry width="14" height="14" relative="1" as="geometry">
            <mxPoint x="140.5" y="-7" as="offset" />
          </mxGeometry>
        </mxCell>
        <mxCell id="htHEX2wMej1VXqCmajkV-37" value="Insert New Employee" style="verticalAlign=bottom;edgeStyle=elbowEdgeStyle;elbow=vertical;curved=0;rounded=0;endArrow=block;labelBackgroundColor=none;strokeColor=#0B4D6A;fontColor=default;strokeWidth=4;" parent="1" source="htHEX2wMej1VXqCmajkV-25" target="htHEX2wMej1VXqCmajkV-26" edge="1">
          <mxGeometry relative="1" as="geometry">
            <Array as="points">
              <mxPoint x="739" y="435" />
            </Array>
          </mxGeometry>
        </mxCell>
        <mxCell id="htHEX2wMej1VXqCmajkV-38" value="5" style="ellipse;aspect=fixed;fillColor=#09555B;align=center;fontColor=#EEEEEE;labelBackgroundColor=none;strokeColor=#BAC8D3;" parent="htHEX2wMej1VXqCmajkV-37" vertex="1">
          <mxGeometry width="14" height="14" relative="1" as="geometry">
            <mxPoint x="-154.5" y="-7" as="offset" />
          </mxGeometry>
        </mxCell>
        <mxCell id="htHEX2wMej1VXqCmajkV-39" value="Insert Successful" style="verticalAlign=bottom;edgeStyle=elbowEdgeStyle;elbow=vertical;curved=0;rounded=0;dashed=1;dashPattern=2 3;endArrow=block;labelBackgroundColor=none;strokeColor=#0B4D6A;fontColor=default;strokeWidth=3;" parent="1" source="htHEX2wMej1VXqCmajkV-26" target="htHEX2wMej1VXqCmajkV-25" edge="1">
          <mxGeometry relative="1" as="geometry">
            <Array as="points">
              <mxPoint x="742" y="489" />
            </Array>
          </mxGeometry>
        </mxCell>
        <mxCell id="htHEX2wMej1VXqCmajkV-40" value="6" style="ellipse;aspect=fixed;fillColor=#09555B;align=center;fontColor=#EEEEEE;labelBackgroundColor=none;strokeColor=#BAC8D3;" parent="htHEX2wMej1VXqCmajkV-39" vertex="1">
          <mxGeometry width="14" height="14" relative="1" as="geometry">
            <mxPoint x="140.5" y="-7" as="offset" />
          </mxGeometry>
        </mxCell>
        <mxCell id="htHEX2wMej1VXqCmajkV-41" value="Return Success Message" style="verticalAlign=bottom;edgeStyle=elbowEdgeStyle;elbow=vertical;curved=0;rounded=0;endArrow=block;labelBackgroundColor=none;strokeColor=#0B4D6A;fontColor=default;strokeWidth=4;" parent="1" source="htHEX2wMej1VXqCmajkV-25" target="htHEX2wMej1VXqCmajkV-24" edge="1">
          <mxGeometry relative="1" as="geometry">
            <Array as="points">
              <mxPoint x="474" y="543" />
            </Array>
          </mxGeometry>
        </mxCell>
        <mxCell id="htHEX2wMej1VXqCmajkV-42" value="7" style="ellipse;aspect=fixed;fillColor=#09555B;align=center;fontColor=#EEEEEE;labelBackgroundColor=none;strokeColor=#BAC8D3;" parent="htHEX2wMej1VXqCmajkV-41" vertex="1">
          <mxGeometry width="14" height="14" relative="1" as="geometry">
            <mxPoint x="114.5" y="-7" as="offset" />
          </mxGeometry>
        </mxCell>
        <mxCell id="htHEX2wMej1VXqCmajkV-43" value="Display Success Message" style="verticalAlign=bottom;edgeStyle=elbowEdgeStyle;elbow=vertical;curved=0;rounded=0;endArrow=block;labelBackgroundColor=none;strokeColor=#0B4D6A;fontColor=default;strokeWidth=4;" parent="1" source="htHEX2wMej1VXqCmajkV-24" target="htHEX2wMej1VXqCmajkV-23" edge="1">
          <mxGeometry relative="1" as="geometry">
            <Array as="points">
              <mxPoint x="230" y="597" />
            </Array>
          </mxGeometry>
        </mxCell>
        <mxCell id="htHEX2wMej1VXqCmajkV-44" value="8" style="ellipse;aspect=fixed;fillColor=#09555B;align=center;fontColor=#EEEEEE;labelBackgroundColor=none;strokeColor=#BAC8D3;" parent="htHEX2wMej1VXqCmajkV-43" vertex="1">
          <mxGeometry width="14" height="14" relative="1" as="geometry">
            <mxPoint x="116.5" y="-7" as="offset" />
          </mxGeometry>
        </mxCell>
        <mxCell id="htHEX2wMej1VXqCmajkV-45" value="Employee Already Exists" style="verticalAlign=bottom;edgeStyle=elbowEdgeStyle;elbow=vertical;curved=0;rounded=0;dashed=1;dashPattern=2 3;endArrow=block;labelBackgroundColor=none;strokeColor=#0B4D6A;fontColor=default;" parent="1" source="htHEX2wMej1VXqCmajkV-26" target="htHEX2wMej1VXqCmajkV-25" edge="1">
          <mxGeometry relative="1" as="geometry">
            <Array as="points">
              <mxPoint x="742" y="698" />
            </Array>
          </mxGeometry>
        </mxCell>
        <mxCell id="htHEX2wMej1VXqCmajkV-46" value="9" style="ellipse;aspect=fixed;fillColor=#09555B;align=center;fontColor=#EEEEEE;labelBackgroundColor=none;strokeColor=#BAC8D3;" parent="htHEX2wMej1VXqCmajkV-45" vertex="1">
          <mxGeometry width="14" height="14" relative="1" as="geometry">
            <mxPoint x="140.5" y="-7" as="offset" />
          </mxGeometry>
        </mxCell>
        <mxCell id="htHEX2wMej1VXqCmajkV-47" value="Return Error Message" style="verticalAlign=bottom;edgeStyle=elbowEdgeStyle;elbow=vertical;curved=0;rounded=0;endArrow=block;labelBackgroundColor=none;strokeColor=#0B4D6A;fontColor=default;strokeWidth=4;" parent="1" source="htHEX2wMej1VXqCmajkV-25" target="htHEX2wMej1VXqCmajkV-24" edge="1">
          <mxGeometry relative="1" as="geometry">
            <Array as="points">
              <mxPoint x="474" y="752" />
            </Array>
          </mxGeometry>
        </mxCell>
        <mxCell id="htHEX2wMej1VXqCmajkV-48" value="10" style="ellipse;aspect=fixed;fillColor=#09555B;align=center;fontColor=#EEEEEE;labelBackgroundColor=none;strokeColor=#BAC8D3;" parent="htHEX2wMej1VXqCmajkV-47" vertex="1">
          <mxGeometry width="14" height="14" relative="1" as="geometry">
            <mxPoint x="114.5" y="-7" as="offset" />
          </mxGeometry>
        </mxCell>
        <mxCell id="htHEX2wMej1VXqCmajkV-49" value="Display Error Message" style="verticalAlign=bottom;edgeStyle=elbowEdgeStyle;elbow=vertical;curved=0;rounded=0;endArrow=block;labelBackgroundColor=none;strokeColor=#0B4D6A;fontColor=default;strokeWidth=4;" parent="1" source="htHEX2wMej1VXqCmajkV-24" target="htHEX2wMej1VXqCmajkV-23" edge="1">
          <mxGeometry relative="1" as="geometry">
            <Array as="points">
              <mxPoint x="230" y="806" />
            </Array>
          </mxGeometry>
        </mxCell>
        <mxCell id="htHEX2wMej1VXqCmajkV-50" value="11" style="ellipse;aspect=fixed;fillColor=#09555B;align=center;fontColor=#EEEEEE;labelBackgroundColor=none;strokeColor=#BAC8D3;" parent="htHEX2wMej1VXqCmajkV-49" vertex="1">
          <mxGeometry width="14" height="14" relative="1" as="geometry">
            <mxPoint x="116.5" y="-7" as="offset" />
          </mxGeometry>
        </mxCell>
      </root>
    </mxGraphModel>
  </diagram>
</mxfile>
